<?xml version="1.0" standalone="no"?>
<!DOCTYPE svg PUBLIC "-//W3C//DTD SVG 20010904//EN"
 "http://www.w3.org/TR/2001/REC-SVG-20010904/DTD/svg10.dtd">
<svg version="1.0" xmlns="http://www.w3.org/2000/svg"
 width="16.000000pt" height="16.000000pt" viewBox="0 0 16.000000 16.000000"
 preserveAspectRatio="xMidYMid meet">
<metadata>
Created by potrace 1.11, written by Peter Selinger 2001-2013
</metadata>
<g transform="translate(0.000000,16.000000) scale(0.005161,-0.005161)"
fill="#000000" stroke="none">
<path d="M1352 3053 c-20 -47 -62 -138 -163 -352 -27 -57 -49 -105 -49 -107 0
-1 -27 -59 -60 -129 -33 -70 -60 -128 -60 -130 0 -1 -23 -52 -51 -111 -89
-190 -105 -225 -204 -439 -54 -115 -113 -244 -133 -285 -19 -41 -48 -104 -64
-140 -17 -36 -43 -92 -58 -125 -16 -33 -56 -118 -89 -189 -34 -71 -61 -130
-61 -133 0 -2 -23 -52 -51 -111 -119 -250 -153 -326 -151 -334 1 -5 -2 -8 -8
-8 -5 0 -10 -5 -10 -12 0 -6 -13 -39 -29 -72 -114 -240 -122 -262 -88 -251 7
2 98 31 202 64 105 33 251 79 325 102 74 24 140 44 145 45 6 1 30 9 55 17 25
8 113 36 195 62 83 25 161 50 175 55 14 5 99 32 190 60 91 28 176 55 190 60
14 5 93 30 175 55 179 56 325 102 380 120 22 8 105 34 185 59 284 88 476 148
560 176 47 15 131 42 187 59 56 17 105 35 108 41 3 5 -6 51 -21 102 -14 51
-27 100 -29 109 -2 8 -11 33 -20 55 -9 21 -18 44 -19 49 -11 52 -139 320 -188
392 -15 23 -28 44 -28 47 0 18 -159 239 -249 346 -81 96 -329 343 -413 410
-44 36 -87 72 -95 79 -9 8 -61 48 -117 88 -55 39 -106 76 -112 81 -5 5 -21 15
-35 22 -13 7 -26 16 -29 19 -3 4 -21 16 -40 28 -19 11 -64 38 -100 60 -88 54
-200 113 -215 113 -7 0 -22 -21 -33 -47z"/>
</g>
</svg>
